<?xml version="1.0" encoding="utf-8"?>
<!-- Generator: Adobe Illustrator 25.4.0, SVG Export Plug-In . SVG Version: 6.00 Build 0)  -->
<svg version="1.1" id="Calque_2_00000120521120310071463650000009159895688320174721_"
	 xmlns="http://www.w3.org/2000/svg" xmlns:xlink="http://www.w3.org/1999/xlink" x="0px" y="0px" viewBox="0 0 903.3 182.4"
	 style="enable-background:new 0 0 903.3 182.4;" xml:space="preserve">
<style type="text/css">
	.st0{fill:none;}
	.st1{fill:#011E26;}
	.st2{fill:#09E6C9;}
	.st3{fill:#FFC125;}
</style>
<path class="st0" d="M66.4,58.2c2.5-5.1,3.6-10.8,6.7-15.7c0.7-1.2,1.7-2.3,2.9-3.1c1.2-0.8,2.7-1,4.1-0.6c1.6,0.7,2.7,2.3,2.9,4
	c0.2,1.7,0.2,3.4,0,5.1c0,0.4-0.1,0.8-0.2,1.2c-0.6,0.7-1.5,0.9-2.3,0.6c-0.8-0.3-1.6-0.6-2.3-1c-1.9-0.6-4,0.5-5.4,2
	c-1.2,1.6-2.2,3.3-2.9,5.2c-0.7,1.9-2.1,3.4-3.8,4.5c-0.5,0.3-1.2,0.3-1.7-0.1C65.3,59.9,66,59.2,66.4,58.2z"/>
<path class="st0" d="M68.1,77.5c-1.5-1.6-3.1-3.6-2.7-5.8c0.4-1.6,1.3-3,2.5-4c3.8-4,7.7-8,11.8-11.8v2c-0.3,4.5-2.9,8.4-5,12.4
	c-1.9,3.7-3.8,8-2.9,12.2C71,80.4,69.5,79,68.1,77.5z"/>
<path class="st0" d="M89.6,106.5c1.7,6.3,4.9,12.5,9.9,16.8c2.6,2.3,6.6,4,9.5,2.1s2.6-6.4,0.6-9.2s-5.2-4.4-8.1-6.4
	c-6.9-4.7-12.7-12.2-14.7-20.4c1.1,2.1,0.8,5.5,1.1,7.9C88.2,100.4,88.8,103.5,89.6,106.5z"/>
<path class="st1" d="M99.2,50c1.8,7.7,1.7,15.7,2.9,23.5s4.4,15.8,11,20.3c1.9,1.3,4.3,2.5,4.9,4.8c0.7,2.5-1.3,5.1-3.7,5.9
	s-5.2,0.1-7.5-1c-9-4.4-13.6-14.7-14.7-24.5s0.6-19.8,0.4-29.7c0.1-2.8-0.4-5.6-1.3-8.2c-1-2.3-5.7-6-5.8-8.2
	c-0.1-2.8,4.3,0.8,5.3,1.7C95.2,38.5,97.8,44.3,99.2,50z"/>
<path class="st1" d="M90.3,110c2,5.9,5.2,11.9,10.8,14.8c2.9,1.5,6.8,1.8,9-0.6c1.9-2.1,1.6-5.6,0-8.1s-4.2-4.1-6.5-5.7
	c-4.2-2.8-7.9-6.2-11.1-10.1c-2.9-3.7-5.3-8.3-5.6-13C86.8,95,87.9,102.7,90.3,110z"/>
<path class="st1" d="M65.6,73.1c-0.1-2.1,1.3-3.9,2.6-5.4c3.2-3.7,6.6-7.3,10.2-10.7c0.4-0.4,1-0.8,1.4-0.5
	c-0.2,3.3-1.2,6.5-2.9,9.3c-1.3,2.1-2.9,4-4,6.1c-1.6,3.1-1.4,6-1.7,9.4C69.4,78.8,65.8,76.5,65.6,73.1z"/>
<path class="st1" d="M71.3,46.8c0.5-1.3,1.1-2.5,1.8-3.6c1.4-2.4,3.8-4.9,6.6-4.5c1.8,0.4,3.2,1.7,3.8,3.4c0.6,1.7,0.8,3.5,0.7,5.3
	c0.1,0.9-0.2,1.8-1,2.4c-0.4,0.1-0.7,0.1-1.1,0c-1.8-0.3-3.5-1.4-5.2-1c-1.3,0.5-2.3,1.5-3,2.7l-4.2,6c-0.5,0.9-1.2,1.7-2,2.3
	c-0.7,0.6-1.7,0.8-2.6,0.6c1-2.1,2.9-4,3.9-6.3C69.8,51.7,70.4,49.2,71.3,46.8z"/>
<path class="st1" d="M92.8,144c1.8,1.3,4,2.1,6.2,2.4c0.7,0,1.7,0.2,1.9,0.9c0,0.3-0.1,0.6-0.2,0.8c-0.9,1.6-2.6,2.5-4.4,2.5
	c-2.2-0.1-4-1.7-5.5-3.3c-2-2-4.4-4.6-5.4-7.2C87.4,138.8,91.1,143,92.8,144z"/>
<path class="st1" d="M172.3,74.5c-4.3,6.3-8.3,12.7-12.1,19.3c-6.7,11.8-12.5,24.1-20.5,35s-18.9,20.4-32.2,23.8
	c-5.6,1.5-12.7,2.7-14.4,8.1c-1.3,4.2,1.7,8.9,5.8,10.6s8.9,1,13.1-0.4c12-4,21.4-13.3,29.2-23.1c9.1-11.4,16.8-23.8,22.9-37
	c3.3-7.1,6.1-14.4,9.5-21.5c10.7-21.9,27-40.5,47.3-53.9c2-1.3,5.1-3,6-5.3c-8.5,0.8-17.9,7-24.6,11.9c-7.5,5.7-14.3,12.2-20.2,19.5
	C178.6,65.8,175.4,70.1,172.3,74.5z"/>
<path class="st1" d="M223,54c-22.1,19.3-31.9,48.5-48.2,72.7c-5,7.5-10.9,14.7-19,18.7c-1.4,0.7-5.6,2.4-7.1,1.1
	c-1.8-1.6,1.4-3.4,2.6-4.6c3.8-3.6,7.3-7.5,10.5-11.6c6.3-8.3,11.9-17.1,16.7-26.4c8.2-15.3,15.5-31.3,25.6-45.6
	c15.4-21.9,37-37.5,62.2-46.8c9.6-3.5,20-5.7,30.2-4.6c1.6,0.1,3.1,0.5,4.5,1.2c2.8,1.8,3.3,5.9,1.7,8.8c-3.1,5.4-11.7,7.3-17.2,8.8
	c-7.4,2.1-14.8,4.2-22.1,6.7C248.8,37.4,234.6,43.9,223,54z"/>
<path class="st1" d="M74.8,104.8l-0.3,6.7l-4.7,14.8l-11.2,49.3H31.3L0,30.3h25.9l21.4,97.8c1.5-8.1,3.3-16.1,5.4-24.1
	c1.6-6.1,3.6-12.4,7.7-17.3c1-0.9,1.2-2.3,0.5-3.4c-2.1-6-1-12.7,3-17.7c-2.8,3.4,0.6,11,1.6,14.4c1.6,5.3,2.6,10.9,1.8,16.4
	c-0.5,3.5-1.7,6.9-1.8,10.4c-0.1,0.8,0.2,1.6,0.8,2.1c0.5,0.2,1,0.3,1.5,0.1c1.9-0.7,3.3-2.4,3.6-4.4c0.2-2,0.1-3.9-0.2-5.9
	c-0.5-4.1-0.4-8.2,0.1-12.3c-0.6,7.7,4.4,15,3.7,22.7c-0.4,3-1.3,5.9-2.4,8.7c-6.7,18.7-8.6,38.7-14,57.9c-4-0.8-6.9-4-9.2-7.4
	c-3.7-5.4-6.3-11.7-6.4-18.2s2.6-13.2,7.8-17.2"/>
<path class="st2" d="M161.3,153.4c4.9-4.2,8.9-9.2,13-14.1c10.3-12.3,20.9-24.3,31.8-36c3.3-3.5,6.6-7,10.6-9.7
	c3.6-2.2,7.4-4.1,11.3-5.6c5.9-2.4,11.9-4.8,18.3-5.3c1.6-0.2,3.1,0,4.6,0.5c1.5,0.6,2.6,1.9,2.8,3.5c0.1,2-1.6,3.6-3.2,4.8
	c-6.2,4.8-12.8,9.3-18.2,15c-8,8.4-13.3,18.9-20.6,27.9c-12.1,14.6-28.8,24.5-47.4,28.1c-3,0.6-6,1-9.1,1.2
	c-1.5,0.1-8.1,1.2-9.1,0.1c-1.7-1.8,5.1-3.9,6.1-4.3C155.5,157.9,158.5,155.8,161.3,153.4z"/>
<path class="st2" d="M196.4,154.6c1.8-3.1,3.8-6.1,6.1-8.8c4.5-5.3,9.8-10,15.7-13.8c2.6-1.9,5.4-3.4,8.3-4.6c10-3.9,21.8-1,30,5.9
	c3.6,3,6.8,7.4,6.1,12.1c-0.1,1.3-0.7,2.5-1.6,3.4c-2.1,2-5.6,1.4-8.4,0.8c-6-1.5-12.1-2.3-18.3-2.4c-4,0.1-7.9,0.6-11.8,1.4
	c-12.2,2.3-22.4,6.9-29.5,17.6c0-3.4,1.1-8,3.1-10.8c3.4-4.6,7.1-9.5,10.9-13.9c6.9-7.9,16.1-14,26.5-15.8s21.7,1.4,28.6,9.3
	c1.5,1.6,2.7,3.6,3.3,5.7c0.6,2.2,0.2,4.5-1.2,6.3c-1.6,1.7-3.8,2.6-6.1,2.5c-2.2-0.1-4.5-0.6-6.6-1.3l-29.1-8.9"/>
<path class="st2" d="M116.3,106.8c2.6-1.6,5.1-3.3,7.6-5.2c1.5-1.2,3.1-2.3,4.7-3.3c1.7-0.9,3.7-1.2,5.6-0.6
	c1.9,0.5,3.2,2.3,3.1,4.3c0,0.2-0.1,0.3-0.1,0.5c-0.3,0.2-0.6,0.3-1,0.3c-3.8,0-6.9,2.8-10.1,4.7c-4,2.4-8.7,3.7-13.4,3.6
	c-1.4,0-6.2-0.3-5.5-2.4C110.5,109.7,113.5,108.5,116.3,106.8z"/>
<path class="st2" d="M76,101.5c-0.9-5.7-1.4-11.5-1.5-17.3c0.1-4.8,0.4-12.5,3.6-16.3c0.8,5.4,0.4,11.6,0.3,17S78,96.2,76,101.5z"/>
<path class="st2" d="M68.5,37.5c0.1-1.8,0.6-3.6,1.4-5.2c1.4-2.1,3.7-3.5,6.2-3.9c0.8-0.2,1.6-0.1,2.4,0.1c0.8,0.3,1.4,1,1.5,1.8
	c0,0.6-0.3,1.2-0.7,1.7c-1.7,2.6-4.3,4.4-6.6,6.4c-2.1,1.8-3.9,4-5.3,6.4C67.7,42.4,68.1,39.9,68.5,37.5z"/>
<path class="st3" d="M129.7,113.5c-7.3,8.5-16.1,16.8-27.3,18.3c-0.8,0-1.5,0.2-2.2,0.6c-1.3,0.8-1.6,2.5-1.4,4
	c0.6,3.5,3.9,6.1,7.4,6.7c3.6,0.4,7.2-0.7,10-2.9s5.1-4.9,7-7.9c3.8-5.6,7-11.7,10.8-17.3c4.1-6,8.9-10.1,14.6-14.3
	C143.3,96.5,132.5,110.3,129.7,113.5z"/>
<path class="st3" d="M223.5,13.1c4.4-3.3,9.1-6.1,14.1-8.5c11.7-5.3,25.2-5.8,37.6-2.8c0.9,0.2,1.9,0.7,1.9,1.5s-0.7,1.2-1.4,1.5
	c-2.9,1.1-5.9,1.7-9,1.8c-18,2.1-35.1,8.6-49.9,19c-3.5,2.5-7,6.1-10.9,7.9c-3.5,1.6-2.4-2.1-1.1-4.2
	C209.3,22.7,217,17.6,223.5,13.1z"/>
<path class="st3" d="M62.8,68.1c-0.8,3.8,1.6,7.3,3.4,10.7c3.7,7,5.3,15.4,3.2,23c-0.5,1.9-1.4,3.9-3.2,4.7s-4.5-0.4-4.3-2.3
	c0.1-0.6,0.4-1.3,0.8-1.8c2.4-4.5,3.6-9.5,3.3-14.6c-0.3-5.1-1.2-10.1-2.7-14.9"/>
<path class="st3" d="M71.8,56.4c1.2-1.9,2.3-4,4.3-4.9c0.8,0.1,0.8,1.2,0.6,1.9c-0.8,3.1-2.6,5.8-5,7.9c-1.8,1.5-3.6,3.1-5.4,4.6
	C64.2,64.2,70.7,58.2,71.8,56.4z"/>
<path class="st3" d="M90.8,52.7c0.4-2.6,0.3-5.2-0.3-7.8c-0.7-2.6-2.4-5-4.9-5.8c-0.4-0.2-0.8-0.2-1.2,0c-0.8,0.4-0.5,1.7-0.1,2.5
	c2.3,4.6,2.3,10,1.8,15.1S85.1,67,86.2,72c0.4,2.1,1.6,5.9,4,6.4c0.5-2.8-0.8-6.4-0.6-9.4C90,63.5,90.4,58.1,90.8,52.7z"/>
<g>
	<path class="st1" d="M298.8,30.6h80.3v19.8h-60.8v36.2h60.8v19.6h-60.8V156h60.8v19.6h-80.3V30.6z"/>
	<path class="st1" d="M400.9,30.6h80.3v19.8h-60.8v36.2h60.8v19.6h-60.8V156h60.8v19.6h-80.3V30.6z"/>
	<path class="st1" d="M503.4,24.8L610.5,135V30.6h19.8v151.7L523.2,72.6v103h-19.8V24.8z"/>
	<path class="st1" d="M714,25.1l68.4,150.5h-20.7l-16.8-37.1h-61.5l-16.6,37.1h-20.6L714,25.1z M714,70.3L690.8,122h46.6L714,70.3z"
		/>
	<path class="st1" d="M769.9,30.9h20.9l45.5,102.7l45.9-102.7h21.1l-67.2,149.6L769.9,30.9z"/>
</g>
</svg>
